HIERARCHY
ROOT Hips
{
 OFFSET 0.000000 0.000000 0.000000
 CHANNELS 6 Xposition Yposition Zposition Yrotation Xrotation Zrotation
 JOINT Chest
 {
  OFFSET 0.000000 9.585900 0.002600
  CHANNELS 3 Yrotation Xrotation Zrotation
  JOINT Chest2
  {
   OFFSET 0.000000 9.601200 -0.005300
   CHANNELS 3 Yrotation Xrotation Zrotation
   JOINT Chest3
   {
    OFFSET 0.000000 9.561800 0.000000
    CHANNELS 3 Yrotation Xrotation Zrotation
    JOINT Chest4
    {
     OFFSET 0.000000 9.552100 0.000000
     CHANNELS 3 Yrotation Xrotation Zrotation
     JOINT Neck
     {
      OFFSET 0.000000 14.453000 0.000000
      CHANNELS 3 Yrotation Xrotation Zrotation
      JOINT Head
      {
       OFFSET 0.000000 8.936500 -0.011300
       CHANNELS 3 Yrotation Xrotation Zrotation
       End Site
       {
        OFFSET 0.000000 17.073600 -0.006000
       }
      }
     }
     JOINT RightCollar
     {
      OFFSET -2.921100 9.558500 0.000000
      CHANNELS 3 Yrotation Xrotation Zrotation
      JOINT RightShoulder
      {
       OFFSET -13.519700 0.000000 0.000000
       CHANNELS 3 Yrotation Xrotation Zrotation
       JOINT RightElbow
       {
        OFFSET 0.000000 -29.696600 0.000000
        CHANNELS 3 Yrotation Xrotation Zrotation
        JOINT RightWrist
        {
         OFFSET 0.000000 -24.004700 0.000000
         CHANNELS 3 Yrotation Xrotation Zrotation
         End Site
         {
          OFFSET 0.000000 -17.728500 0.000000
         }
        }
       }
      }
     }
     JOINT LeftCollar
     {
      OFFSET 2.921100 9.558500 0.000000
      CHANNELS 3 Yrotation Xrotation Zrotation
      JOINT LeftShoulder
      {
       OFFSET 13.519700 0.000000 0.000000
       CHANNELS 3 Yrotation Xrotation Zrotation
       JOINT LeftElbow
       {
        OFFSET 0.000000 -29.696600 0.000000
        CHANNELS 3 Yrotation Xrotation Zrotation
        JOINT LeftWrist
        {
         OFFSET 0.000000 -24.004700 0.000000
         CHANNELS 3 Yrotation Xrotation Zrotation
         End Site
         {
          OFFSET 0.000000 -17.728500 0.000000
         }
        }
       }
      }
     }
    }
   }
  }
 }
 JOINT RightHip
 {
  OFFSET -7.771700 -0.012900 -0.001300
  CHANNELS 3 Yrotation Xrotation Zrotation
  JOINT RightKnee
  {
   OFFSET 0.000000 -40.869800 0.001200
   CHANNELS 3 Yrotation Xrotation Zrotation
   JOINT RightAnkle
   {
    OFFSET 0.000000 -39.717900 0.002100
    CHANNELS 3 Yrotation Xrotation Zrotation
    JOINT RightToe
    {
     OFFSET 0.000000 -4.965400 11.033500
     CHANNELS 3 Yrotation Xrotation Zrotation
     End Site
     {
      OFFSET 0.000000 -1.423100 5.872300
     }
    }
   }
  }
 }
 JOINT LeftHip
 {
  OFFSET 7.771700 -0.012900 -0.001300
  CHANNELS 3 Yrotation Xrotation Zrotation
  JOINT LeftKnee
  {
   OFFSET 0.000000 -40.869800 0.001200
   CHANNELS 3 Yrotation Xrotation Zrotation
   JOINT LeftAnkle
   {
    OFFSET 0.000000 -39.717900 0.002100
    CHANNELS 3 Yrotation Xrotation Zrotation
    JOINT LeftToe
    {
     OFFSET 0.000000 -4.965400 11.033500
     CHANNELS 3 Yrotation Xrotation Zrotation
     End Site
     {
      OFFSET 0.000000 -1.423100 5.872300
     }
    }
   }
  }
 }
}
MOTION
Frames: 12
Frame Time: 0.008333
0.000000 85.388000 0.000000 0.000000 -5.767877 0.000000 0.000000 11.653817 0.000000 0.000000 -5.885947 0.000000 0.000000 -0.000000 0.000000 0.000000 -0.000000 0.000000 0.000000 12.528835 0.000000 0.000000 0.711642 0.000000 0.000000 -0.000000 0.000000 0.000000 0.000000 -90.000000 0.000000 -2.309062 0.000000 0.000000 2.309062 0.000000 0.000000 -0.000000 0.000000 0.000000 -0.000000 90.000000 0.000000 -2.309062 0.000000 0.000000 2.309062 0.000000 0.000000 8.520406 0.000000 0.000000 1.905762 0.000000 -0.000000 -4.658285 0.000000 0.000000 -0.000000 0.000000 0.000000 8.520406 0.000000 0.000000 1.905762 0.000000 -0.000000 -4.658285 0.000000 0.000000 -0.000000 0.000000
-61.675383 46.772162 2.443053 -179.633704 -27.278691 -2.989519 0.145953 19.358923 1.582478 0.005957 2.345830 0.244852 0.015159 3.861101 0.403321 0.296587 16.768162 1.810616 -5.749605 25.723465 -0.495755 -10.177801 12.094557 0.416755 -0.579409 1.864465 -3.020568 5.084165 -7.113683 -14.710809 -56.774348 -70.012987 103.111167 2.517456 8.081673 -13.098773 -0.381253 0.705231 2.779687 -4.004658 -2.849412 11.251187 79.538078 -76.654328 -116.726115 -1.479949 9.193789 9.072978 6.331362 -58.846669 -14.493035 -160.556333 76.971936 -153.085678 -9.406256 -14.175370 -0.939045 0.064332 -0.441110 0.002940 -1.128269 -60.964975 7.847481 -105.210754 83.219347 -110.332740 4.693976 -5.935044 5.424272 0.274025 0.377971 0.114383
-61.668269 46.777438 2.432849 -179.707271 -27.296212 -3.027371 0.204685 19.398518 1.630981 -0.028839 2.374572 0.228844 0.011617 3.868776 0.404077 0.257346 16.802235 1.803449 -5.735975 25.674950 -0.484793 -10.142098 12.009417 0.424095 -0.543424 1.880516 -3.025727 5.249011 -7.134971 -14.682477 -56.363182 -69.795709 102.711757 2.323931 7.964970 -13.511282 -0.365661 0.715944 2.787718 -4.127397 -2.809292 11.167827 78.570175 -76.423109 -115.838315 -1.270590 9.214773 9.460217 6.239518 -58.834519 -14.336971 -160.603356 76.987349 -153.128244 -9.400048 -14.170573 -0.952594 0.048746 -0.449209 -0.002308 -1.221004 -60.945554 8.008630 -105.414139 83.178250 -110.521097 4.728947 -5.988153 5.388750 0.289874 0.392907 0.121151
-61.660565 46.779620 2.429353 -179.770157 -27.263786 -3.077131 0.203315 19.426351 1.644952 0.019293 2.339771 0.254253 -0.027270 3.905828 0.389646 0.241695 16.818833 1.802514 -5.721266 25.631417 -0.475424 -10.118779 11.928677 0.440584 -0.531133 1.910459 -3.032345 5.375503 -7.156625 -14.647397 -55.960712 -69.574378 102.330579 2.154846 7.878176 -13.911199 -0.368029 0.739245 2.794973 -4.240154 -2.770732 11.099095 77.693146 -76.196066 -115.024901 -1.073335 9.235675 9.912586 6.080961 -58.868635 -14.161418 -160.711883 77.020847 -153.224358 -9.385131 -14.191124 -1.005971 0.045844 -0.433551 0.000948 -1.405383 -60.969863 8.239851 -105.508254 83.170297 -110.637657 4.767359 -6.031283 5.366677 0.259174 0.415705 0.116361
-61.658620 46.783127 2.423391 -179.815110 -27.245747 -3.102560 0.174820 19.472222 1.623375 0.016698 2.347367 0.254838 -0.012878 3.902274 0.397537 0.227320 16.837342 1.801484 -5.664105 25.566535 -0.465111 -10.122803 11.865331 0.474660 -0.519886 1.932652 -3.038032 5.483191 -7.151492 -14.597697 -55.636580 -69.385139 102.012058 2.020054 7.835359 -14.256692 -0.368954 0.751215 2.801658 -4.337638 -2.730251 11.044823 76.932109 -75.992365 -114.312958 -0.906865 9.250663 10.396710 5.993688 -58.886163 -14.055074 -160.785797 77.043595 -153.301184 -9.379291 -14.197252 -1.025065 0.039615 -0.429346 -0.000607 -1.506344 -60.982022 8.372798 -105.607649 83.162518 -110.740150 4.766368 -6.054381 5.338477 0.286343 0.423260 0.119678
-61.655944 46.787222 2.417237 -179.860865 -27.231674 -3.132112 0.199376 19.483039 1.648080 -0.036247 2.395419 0.229086 0.002045 3.897350 0.406188 0.215365 16.856681 1.800670 -5.663740 25.528924 -0.451945 -10.073287 11.766688 0.488708 -0.511112 1.949920 -3.040146 5.543158 -7.162262 -14.558197 -55.336763 -69.208880 101.736232 1.928254 7.843068 -14.511309 -0.370210 0.755024 2.806038 -4.415274 -2.687214 11.004499 76.331797 -75.826872 -113.753669 -0.781497 9.264603 10.866902 5.895841 -58.901176 -13.931677 -160.828133 77.063205 -153.359491 -9.356535 -14.197926 -1.027874 0.013018 -0.428110 -0.011418 -1.587506 -60.993376 8.493295 -105.726708 83.152952 -110.851165 4.781959 -6.072650 5.301673 0.307128 0.425342 0.131369
-61.650770 46.790872 2.413144 -179.918126 -27.209250 -3.170074 0.239026 19.484020 1.687093 -0.074016 2.430390 0.213758 -0.000116 3.907381 0.406727 0.206133 16.875710 1.799467 -5.659682 25.489561 -0.437576 -10.020164 11.665715 0.504336 -0.505343 1.962877 -3.039133 5.567116 -7.168277 -14.520142 -55.110862 -69.082899 101.538366 1.879520 7.899854 -14.662753 -0.374344 0.753855 2.805529 -4.472723 -2.643701 10.975237 75.912777 -75.714080 -113.367931 -0.690471 9.280265 11.280786 5.784697 -58.928569 -13.786407 -160.901889 77.088738 -153.432730 -9.352899 -14.193254 -1.055256 0.013196 -0.431925 -0.012098 -1.684689 -61.014021 8.641562 -105.849612 83.145265 -110.964862 4.808984 -6.091864 5.261919 0.302911 0.429215 0.142768
-61.643595 46.793195 2.412793 -179.984785 -27.167926 -3.213727 0.198273 19.539631 1.666784 -0.020979 2.395649 0.239995 -0.001852 3.917088 0.407331 0.198706 16.893872 1.798885 -5.634313 25.439063 -0.422639 -9.975990 11.599118 0.501846 -0.502753 1.970110 -3.039399 5.559402 -7.168904 -14.481159 -54.949886 -69.013717 101.408433 1.861520 7.989191 -14.725876 -0.383519 0.748581 2.800054 -4.517442 -2.599101 10.954777 75.657488 -75.652952 -113.133205 -0.621772 9.298547 11.607950 5.665833 -58.976051 -13.635236 -161.044034 77.127380 -153.544970 -9.382178 -14.188807 -1.124818 0.057740 -0.435251 0.005350 -1.822659 -61.050572 8.836423 -105.932502 83.142848 -111.054663 4.833352 -6.115756 5.237757 0.283524 0.441907 0.140393
-61.640044 46.794960 2.414006 179.963578 -27.120272 -3.240434 0.175037 19.561843 1.652659 -0.005346 2.387427 0.248208 -0.003256 3.926307 0.408353 0.192743 16.911023 1.800263 -5.606167 25.387698 -0.407060 -9.936140 11.533704 0.500518 -0.500764 1.973623 -3.041745 5.528324 -7.163432 -14.442778 -54.835447 -68.991718 101.323754 1.863527 8.088268 -14.726721 -0.395676 0.741903 2.788677 -4.553045 -2.553150 10.945218 75.516179 -75.626337 -113.003123 -0.562322 9.318288 11.839902 5.602637 -59.027731 -13.540608 -161.084051 77.149691 -153.567198 -9.388320 -14.181748 -1.166231 0.086682 -0.436788 0.018918 -1.924302 -61.095132 8.977662 -105.981769 83.146844 -111.117065 4.850854 -6.121973 5.233052 0.263030 0.444376 0.129304
-61.633559 46.798204 2.413629 179.895055 -27.089867 -3.275227 0.189897 19.584538 1.667600 -0.006056 2.392973 0.248843 -0.004353 3.934984 0.409364 0.188163 16.927249 1.801873 -5.573772 25.336699 -0.390639 -9.883408 11.396332 0.566319 -0.497702 1.976264 -3.043000 5.486305 -7.155237 -14.407801 -54.751581 -68.996877 101.266426 1.877850 8.179697 -14.693087 -0.410657 0.736423 2.775619 -4.572519 -2.509067 10.944328 75.420708 -75.613514 -112.918093 -0.504316 9.327548 11.983960 5.524304 -59.064213 -13.409491 -161.095423 77.171674 -153.558791 -9.392552 -14.168145 -1.211518 0.108526 -0.444422 0.030813 -2.027088 -61.125368 9.136852 -106.128072 83.146891 -111.256436 4.857973 -6.137246 5.209955 0.262545 0.446857 0.124005
-61.624409 46.803422 2.410676 179.805717 -27.083098 -3.315280 0.263511 19.600953 1.725562 -0.041328 2.425395 0.233061 -0.005017 3.943118 0.410156 0.185682 16.942459 1.803051 -5.537163 25.286511 -0.373228 -9.820016 11.288129 0.605592 -0.496732 1.978079 -3.044324 5.449073 -7.147084 -14.376319 -54.691471 -69.012770 101.227563 1.892283 8.252464 -14.652321 -0.428501 0.732488 2.764913 -4.575438 -2.468539 10.949003 75.339212 -75.595709 -112.850719 -0.450623 9.317115 12.055750 5.410342 -59.076281 -13.234216 -161.122081 77.203560 -153.571955 -9.382893 -14.156244 -1.247850 0.111452 -0.450129 0.023487 -2.113891 -61.132773 9.299263 -106.369753 83.135175 -111.461685 4.858195 -6.173892 5.159233 0.286195 0.457184 0.129714
-61.621695 46.806757 2.411500 179.742982 -27.052557 -3.328443 0.242959 19.637493 1.697747 -0.024026 2.416721 0.241794 -0.005045 3.950826 0.410987 0.186154 16.956773 1.804839 -5.496332 25.237085 -0.355259 -9.752119 11.195694 0.631794 -0.499568 1.977442 -3.045604 5.428839 -7.137101 -14.352200 -54.658235 -69.032597 101.208386 1.936431 8.258551 -14.594367 -0.447024 0.727658 2.754745 -4.566397 -2.430855 10.960002 75.268888 -75.567825 -112.803475 -0.410520 9.288954 12.080756 5.333349 -59.109276 -13.131219 -161.145798 77.232616 -153.593824 -9.384313 -14.154951 -1.271986 0.108957 -0.442854 0.018713 -2.133310 -61.166848 9.352608 -106.546645 83.149935 -111.611324 4.898781 -6.184270 5.145826 0.247151 0.455524 0.112503
